# xmcd
# 
# Track frame offsets:
#     150
#     10998
#     22596
#     38469
#     54717
#     75990
#     91113
#     103836
#     122859
#     135132
#     159255
# 
# Disc length: 2419
# 
# Revision: 0
# Processed by: cddbd v1.5.2PL0 Copyright (c) Steve Scherf et al.
# Submitted via: fre:ac v1.0.27
# 
DISCID=6c09710b
DTITLE=Young Austin Band - Yesterday Is Gone
DYEAR=2013
DGENRE=Blues
TTITLE0=High Time We Played
TTITLE1=When it Comes to Lovin'
TTITLE2=Some Like it Hot
TTITLE3=Who Knows
TTITLE4=You Said
TTITLE5=It's Gonna Rain
TTITLE6=Love Once Lost
TTITLE7=Yesterday is Gone
TTITLE8=Mean Thing
TTITLE9=Blood on Beale
TTITLE10=Yesterday...."love you, bye"
EXTD=
EXTT0=
EXTT1=
EXTT2=
EXTT3=
EXTT4=
EXTT5=
EXTT6=
EXTT7=
EXTT8=
EXTT9=
EXTT10=
PLAYORDER=
